<svg xmlns="http://www.w3.org/2000/svg" viewBox="0 0 200 200" width="200" height="200">
  <defs>
    <linearGradient id="gradient" x1="0%" y1="0%" x2="100%" y2="100%">
      <stop offset="0%" style="stop-color:#3B82F6" />
      <stop offset="100%" style="stop-color:#14B8A6" />
    </linearGradient>
  </defs>
  
  <!-- Speech Bubble -->
  <path d="M20 100 Q20 20 100 20 Q180 20 180 100 Q180 180 100 180 L60 180 L40 200 L40 180 Q20 180 20 100Z" fill="url(#gradient)" />
  
  <!-- Stylized 8 / Face -->
  <path d="M70 70 Q100 40 130 70 Q160 100 130 130 Q100 160 70 130 Q40 100 70 70Z" fill="none" stroke="white" stroke-width="12" />
  
  <!-- Eyes -->
  <circle cx="85" cy="85" r="8" fill="white" />
  <circle cx="115" cy="85" r="8" fill="white" />
  
  <!-- Mouth (changes based on sentiment) -->
  <path d="M85 120 Q100 140 115 120" fill="none" stroke="white" stroke-width="6" stroke-linecap="round" />
</svg>